<?xml version="1.0" encoding="UTF-8"?>
<!DOCTYPE svg PUBLIC "-//W3C//DTD SVG 1.1//EN" "http://www.w3.org/Graphics/SVG/1.1/DTD/svg11.dtd">
<svg xmlns="http://www.w3.org/2000/svg" version="1.1" width="500px" height="500px" style="shape-rendering:geometricPrecision; text-rendering:geometricPrecision; image-rendering:optimizeQuality; fill-rule:evenodd; clip-rule:evenodd" xmlns:xlink="http://www.w3.org/1999/xlink">
<g><path style="opacity:1" fill="#f0eee6" d="M -0.5,-0.5 C 166.167,-0.5 332.833,-0.5 499.5,-0.5C 499.5,166.167 499.5,332.833 499.5,499.5C 332.833,499.5 166.167,499.5 -0.5,499.5C -0.5,332.833 -0.5,166.167 -0.5,-0.5 Z"/></g>
<g><path style="opacity:1" fill="#fecbb0" d="M 180.5,133.5 C 186.159,136.082 191.659,139.082 197,142.5C 201.399,140.384 205.566,137.884 209.5,135C 210.5,134.333 211.5,134.333 212.5,135C 234.326,149.337 255.992,163.837 277.5,178.5C 277,178.833 276.5,179.167 276,179.5C 254.075,165.909 232.408,151.909 211,137.5C 207.414,139.709 203.914,142.043 200.5,144.5C 216.787,155.984 233.454,166.984 250.5,177.5C 251.386,178.325 251.719,179.325 251.5,180.5C 247.619,179.226 243.952,177.393 240.5,175C 220.968,161.97 201.302,149.137 181.5,136.5C 159.833,150.667 138.167,164.833 116.5,179C 114.975,180.009 113.308,180.509 111.5,180.5C 111.281,179.325 111.614,178.325 112.5,177.5C 119.752,172.958 126.919,168.291 134,163.5C 134.186,156.586 134.686,149.753 135.5,143C 140.489,142.501 145.489,142.334 150.5,142.5C 150.18,145.898 150.513,149.232 151.5,152.5C 161.061,145.894 170.727,139.561 180.5,133.5 Z"/></g>
<g><path style="opacity:1" fill="#f1eee6" d="M 138.5,145.5 C 141.5,145.5 144.5,145.5 147.5,145.5C 147.82,148.898 147.487,152.232 146.5,155.5C 144.258,157.539 141.758,159.205 139,160.5C 138.501,155.511 138.334,150.511 138.5,145.5 Z"/></g>
<g><path style="opacity:1" fill="#010101" d="M 113.5,183.5 C 168.167,183.5 222.833,183.5 277.5,183.5C 277.5,184.833 277.5,186.167 277.5,187.5C 222.833,187.5 168.167,187.5 113.5,187.5C 113.5,186.167 113.5,184.833 113.5,183.5 Z"/></g>
<g><path style="opacity:1" fill="#918f8b" d="M 327.5,205.5 C 327.5,205.833 327.5,206.167 327.5,206.5C 327.5,225.833 327.5,245.167 327.5,264.5C 326.833,249.167 326.167,233.833 325.5,218.5C 326.686,216.126 326.686,213.792 325.5,211.5C 326.167,209.5 326.833,207.5 327.5,205.5 Z"/></g>
<g><path style="opacity:1" fill="#050505" d="M 327.5,206.5 C 331.167,206.5 334.833,206.5 338.5,206.5C 338.168,218.186 338.501,229.852 339.5,241.5C 340.107,241.376 340.44,241.043 340.5,240.5C 343.629,236.869 346.963,233.369 350.5,230C 355.833,229.333 361.167,229.333 366.5,230C 361.167,235.333 355.833,240.667 350.5,246C 355,250.5 359.5,255 364,259.5C 364.952,251.876 369.118,249.043 376.5,251C 380.707,254.07 381.54,257.903 379,262.5C 377.829,263.893 376.329,264.727 374.5,265C 367.192,264.865 359.859,264.531 352.5,264C 348.296,259.964 344.296,255.798 340.5,251.5C 340.44,250.957 340.107,250.624 339.5,250.5C 338.507,255.12 338.173,259.786 338.5,264.5C 334.833,264.5 331.167,264.5 327.5,264.5C 327.5,245.167 327.5,225.833 327.5,206.5 Z"/></g>
<g><path style="opacity:1" fill="#52514f" d="M 327.5,206.5 C 327.5,206.167 327.5,205.833 327.5,205.5C 331.5,205.5 335.5,205.5 339.5,205.5C 339.172,217.345 339.505,229.012 340.5,240.5C 340.44,241.043 340.107,241.376 339.5,241.5C 338.501,229.852 338.168,218.186 338.5,206.5C 334.833,206.5 331.167,206.5 327.5,206.5 Z"/></g>
<g><path style="opacity:1" fill="#060606" d="M 133.5,207.5 C 141.255,206.658 148.588,207.991 155.5,211.5C 156.583,212.365 156.749,213.365 156,214.5C 154.333,217.167 152.667,219.833 151,222.5C 146.241,218.683 141.075,217.85 135.5,220C 132.735,222.966 133.068,225.633 136.5,228C 143.874,230.434 150.374,234.267 156,239.5C 163.014,227.736 172.347,225.402 184,232.5C 184.483,231.552 184.649,230.552 184.5,229.5C 188.5,229.5 192.5,229.5 196.5,229.5C 196.5,241.167 196.5,252.833 196.5,264.5C 192.5,264.5 188.5,264.5 184.5,264.5C 184.657,263.127 184.49,261.793 184,260.5C 173.316,268.394 164.316,266.727 157,255.5C 152.033,262.835 145.033,266.168 136,265.5C 128.839,265.42 122.506,263.087 117,258.5C 118.233,254.701 120.066,251.034 122.5,247.5C 127.607,252.258 133.607,254.091 140.5,253C 144.87,251.022 145.536,248.189 142.5,244.5C 137.992,241.746 133.326,239.246 128.5,237C 120.989,230.786 119.489,223.286 124,214.5C 126.79,211.535 129.957,209.202 133.5,207.5 Z"/></g>
<g><path style="opacity:1" fill="#100f0f" d="M 325.5,211.5 C 326.686,213.792 326.686,216.126 325.5,218.5C 320.818,223.896 316.318,223.563 312,217.5C 308.171,223.703 303.838,224.036 299,218.5C 297.84,209.989 301.34,206.822 309.5,209C 310.701,209.903 311.535,211.069 312,212.5C 316.318,206.437 320.818,206.104 325.5,211.5 Z"/></g>
<g><path style="opacity:1" fill="#070707" d="M 216.5,228.5 C 223.035,227.564 228.368,229.564 232.5,234.5C 239.086,227.536 246.419,226.703 254.5,232C 256.102,233.935 257.269,236.101 258,238.5C 264.856,227.666 273.689,225.666 284.5,232.5C 285.386,231.675 285.719,230.675 285.5,229.5C 289.5,229.5 293.5,229.5 297.5,229.5C 297.5,241.167 297.5,252.833 297.5,264.5C 293.5,264.5 289.5,264.5 285.5,264.5C 285.657,263.127 285.49,261.793 285,260.5C 274.316,268.394 265.316,266.727 258,255.5C 257.502,258.482 257.335,261.482 257.5,264.5C 253.5,264.5 249.5,264.5 245.5,264.5C 245.666,256.826 245.5,249.159 245,241.5C 244.242,239.09 242.575,238.09 240,238.5C 236.94,238.225 234.94,239.558 234,242.5C 233.5,249.826 233.334,257.159 233.5,264.5C 229.5,264.5 225.5,264.5 221.5,264.5C 221.666,256.493 221.5,248.493 221,240.5C 217.667,237.833 214.333,237.833 211,240.5C 210.5,248.493 210.334,256.493 210.5,264.5C 206.5,264.5 202.5,264.5 198.5,264.5C 198.5,252.833 198.5,241.167 198.5,229.5C 202.5,229.5 206.5,229.5 210.5,229.5C 210.351,230.552 210.517,231.552 211,232.5C 212.812,231.023 214.645,229.69 216.5,228.5 Z"/></g>
<g><path style="opacity:1" fill="#0a0a0a" d="M 299.5,229.5 C 303.5,229.5 307.5,229.5 311.5,229.5C 311.667,244.17 311.5,258.837 311,273.5C 306.976,282.738 300.142,285.571 290.5,282C 289.978,281.439 289.645,280.772 289.5,280C 290.333,277.5 291.167,275 292,272.5C 293.645,272.307 295.479,272.14 297.5,272C 298.126,271.25 298.626,270.416 299,269.5C 299.5,256.171 299.667,242.837 299.5,229.5 Z"/></g>
<g><path style="opacity:1" fill="#0a0909" d="M 313.5,229.5 C 317.5,229.5 321.5,229.5 325.5,229.5C 325.5,241.167 325.5,252.833 325.5,264.5C 321.5,264.5 317.5,264.5 313.5,264.5C 313.5,252.833 313.5,241.167 313.5,229.5 Z"/></g>
<g><path style="opacity:1" fill="#e7e5dd" d="M 173.5,238.5 C 181.865,238.36 185.365,242.36 184,250.5C 178.867,257.075 173.867,257.075 169,250.5C 167.474,245.239 168.974,241.239 173.5,238.5 Z"/></g>
<g><path style="opacity:1" fill="#e7e5dd" d="M 274.5,238.5 C 282.865,238.36 286.365,242.36 285,250.5C 279.867,257.075 274.867,257.075 270,250.5C 268.474,245.239 269.974,241.239 274.5,238.5 Z"/></g>
<g><path style="opacity:1" fill="#504f4d" d="M 340.5,251.5 C 339.833,255.833 339.167,260.167 338.5,264.5C 338.173,259.786 338.507,255.12 339.5,250.5C 340.107,250.624 340.44,250.957 340.5,251.5 Z"/></g>
<g><path style="opacity:1" fill="#403f3d" d="M 191.5,289.5 C 198.122,290.479 198.122,291.479 191.5,292.5C 193.646,293.556 195.312,295.056 196.5,297C 194.661,299.898 192.327,300.231 189.5,298C 191.107,298.019 192.774,298.185 194.5,298.5C 194.5,297.5 194.5,296.5 194.5,295.5C 189.707,295.089 188.707,293.089 191.5,289.5 Z"/></g>
<g><path style="opacity:1" fill="#0f0f0e" d="M 263.5,292.5 C 264.158,293.793 264.492,295.293 264.5,297C 264.577,299.051 264.077,300.884 263,302.5C 263.317,299.254 263.483,295.92 263.5,292.5 Z"/></g>
<g><path style="opacity:1" fill="#3a3a38" d="M 246.5,292.5 C 248.5,292.5 250.5,292.5 252.5,292.5C 252.5,294.833 252.5,297.167 252.5,299.5C 246.079,300.752 244.079,298.419 246.5,292.5 Z"/></g>
<g><path style="opacity:1" fill="#e1dfd8" d="M 247.5,293.5 C 248.5,293.5 249.5,293.5 250.5,293.5C 250.884,295.665 250.217,297.332 248.5,298.5C 246.296,297.218 245.962,295.551 247.5,293.5 Z"/></g>
<g><path style="opacity:1" fill="#7a7975" d="M 353.5,292.5 C 354.468,294.607 354.802,296.941 354.5,299.5C 353.5,299.5 352.5,299.5 351.5,299.5C 351.5,299.167 351.5,298.833 351.5,298.5C 351.5,297.833 351.833,297.5 352.5,297.5C 353.518,296.708 353.851,295.041 353.5,292.5 Z"/></g>
<g><path style="opacity:1" fill="#232221" d="M 371.5,300.5 C 370.833,299.833 370.167,299.167 369.5,298.5C 371.241,294.591 370.241,293.258 366.5,294.5C 365.596,295.209 365.263,296.209 365.5,297.5C 364.199,296.116 364.199,294.616 365.5,293C 367.473,292.505 369.473,292.338 371.5,292.5C 371.5,295.167 371.5,297.833 371.5,300.5 Z"/></g>
<g><path style="opacity:1" fill="#e0ded6" d="M 369.5,298.5 C 367.088,298.306 366.088,296.973 366.5,294.5C 370.241,293.258 371.241,294.591 369.5,298.5 Z"/></g>
<g><path style="opacity:1" fill="#2f2e2d" d="M 288.5,289.5 C 289.309,291.292 289.809,293.292 290,295.5C 293.523,291.553 294.357,291.553 292.5,295.5C 293.833,296.62 294.333,297.953 294,299.5C 291.888,295.873 290.221,295.873 289,299.5C 288.502,296.183 288.335,292.85 288.5,289.5 Z"/></g>
<g><path style="opacity:1" fill="#212120" d="M 353.5,292.5 C 353.851,295.041 353.518,296.708 352.5,297.5C 352.934,294.834 351.934,293.667 349.5,294C 347.944,296.501 348.611,298.001 351.5,298.5C 351.5,298.833 351.5,299.167 351.5,299.5C 347.775,299.22 346.608,297.22 348,293.5C 349.699,292.594 351.533,292.261 353.5,292.5 Z"/></g>
<g><path style="opacity:1" fill="#e9e7e0" d="M 352.5,297.5 C 351.833,297.5 351.5,297.833 351.5,298.5C 348.611,298.001 347.944,296.501 349.5,294C 351.934,293.667 352.934,294.834 352.5,297.5 Z"/></g>
<g><path style="opacity:1" fill="#3e3e3c" d="M 230.5,293.5 C 230.114,301.398 229.114,301.398 227.5,293.5C 225.869,295.059 225.036,297.059 225,299.5C 224.503,297.19 224.337,294.857 224.5,292.5C 226.621,292.325 228.621,292.659 230.5,293.5 Z"/></g>
<g><path style="opacity:1" fill="#1b1a19" d="M 230.5,293.5 C 231.568,292.566 232.901,292.232 234.5,292.5C 234.663,294.857 234.497,297.19 234,299.5C 233.505,297.527 233.338,295.527 233.5,293.5C 232.5,293.5 231.5,293.5 230.5,293.5 Z"/></g>
<g><path style="opacity:1" fill="#2a2a29" d="M 207.5,292.5 C 209.5,292.5 211.5,292.5 213.5,292.5C 213.5,294.833 213.5,297.167 213.5,299.5C 207.463,300.387 205.463,298.054 207.5,292.5 Z"/></g>
<g><path style="opacity:1" fill="#d6d4cd" d="M 208.5,293.5 C 212.161,293.35 213.161,294.85 211.5,298C 210.552,298.483 209.552,298.649 208.5,298.5C 208.5,296.833 208.5,295.167 208.5,293.5 Z"/></g>
<g><path style="opacity:1" fill="#302f2e" d="M 306.5,292.5 C 311.328,292.385 312.661,294.552 310.5,299C 304.738,299.418 303.404,297.251 306.5,292.5 Z"/></g>
<g><path style="opacity:1" fill="#eae8e0" d="M 307.5,293.5 C 310.956,294.536 311.29,296.203 308.5,298.5C 306.296,297.218 305.962,295.551 307.5,293.5 Z"/></g>
<g><path style="opacity:1" fill="#585755" d="M 366.5,294.5 C 366.088,296.973 367.088,298.306 369.5,298.5C 370.167,299.167 370.833,299.833 371.5,300.5C 369.67,302.721 367.67,302.888 365.5,301C 366.833,300.667 368.167,300.333 369.5,300C 367.563,299.878 366.23,299.045 365.5,297.5C 365.263,296.209 365.596,295.209 366.5,294.5 Z"/></g>
<g><path style="opacity:1" fill="#050504" d="M 223.5,315.5 C 278.167,315.5 332.833,315.5 387.5,315.5C 387.5,316.833 387.5,318.167 387.5,319.5C 332.833,319.5 278.167,319.5 223.5,319.5C 223.5,318.167 223.5,316.833 223.5,315.5 Z"/></g>
<g><path style="opacity:1" fill="#2f2f2d" d="M 232.5,425.5 C 236.893,425.457 237.226,425.957 233.5,427C 234.579,427.956 235.745,428.789 237,429.5C 237.617,430.449 237.451,431.282 236.5,432C 234.597,432.774 232.93,432.44 231.5,431C 232.951,431.263 234.284,431.096 235.5,430.5C 233.244,429.579 232.244,427.912 232.5,425.5 Z"/></g>
<g><path style="opacity:1" fill="#282827" d="M 253.5,425.5 C 259.208,425.492 259.541,425.992 254.5,427C 253.167,428.333 253.167,429.667 254.5,431C 256.085,431.085 257.418,431.251 258.5,431.5C 252.74,433.213 251.074,431.213 253.5,425.5 Z"/></g>
<g><path style="opacity:1" fill="#363534" d="M 261.5,425.5 C 264.95,424.756 266.616,426.09 266.5,429.5C 264.801,429.34 263.134,429.506 261.5,430C 263.193,431.347 264.86,431.847 266.5,431.5C 260.74,433.213 259.074,431.213 261.5,425.5 Z"/></g>
<g><path style="opacity:1" fill="#5f5e5b" d="M 239.5,425.5 C 240.725,426.152 241.392,427.319 241.5,429C 241.167,430.167 240.833,431.333 240.5,432.5C 239.526,430.257 239.192,427.924 239.5,425.5 Z"/></g>
<g><path style="opacity:1" fill="#2b2a29" d="M 243.5,425.5 C 245.5,425.5 247.5,425.5 249.5,425.5C 249.663,427.857 249.497,430.19 249,432.5C 248.505,430.527 248.338,428.527 248.5,426.5C 247.5,426.5 246.5,426.5 245.5,426.5C 245.799,428.604 245.466,430.604 244.5,432.5C 243.526,430.257 243.192,427.924 243.5,425.5 Z"/></g>
<g><path style="opacity:1" fill="#292928" d="M 234.5,435.5 C 237.243,435.077 238.576,436.244 238.5,439C 238.357,441.151 237.357,442.818 235.5,444C 236.833,444.333 238.167,444.667 239.5,445C 232.898,446.074 232.065,444.574 237,440.5C 237.483,439.552 237.649,438.552 237.5,437.5C 236.178,437.33 235.011,437.663 234,438.5C 233.53,437.423 233.697,436.423 234.5,435.5 Z"/></g>
<g><path style="opacity:1" fill="#141413" d="M 261.5,439.5 C 261.415,438.005 262.081,437.005 263.5,436.5C 265.239,439.582 265.406,442.582 264,445.5C 263.517,444.552 263.351,443.552 263.5,442.5C 262.022,442.762 260.689,442.429 259.5,441.5C 259.855,440.478 260.522,439.811 261.5,439.5 Z"/></g>
<g><path style="opacity:1" fill="#bfbeb7" d="M 261.5,439.5 C 263.54,438.525 263.873,439.192 262.5,441.5C 261.702,441.043 261.369,440.376 261.5,439.5 Z"/></g>
<g><path style="opacity:1" fill="#373735" d="M 243.5,435.5 C 247.784,436.385 249.284,439.051 248,443.5C 244.168,446.673 242.001,445.839 241.5,441C 241.395,438.822 242.061,436.988 243.5,435.5 Z"/></g>
<g><path style="opacity:1" fill="#dfddd6" d="M 243.5,437.5 C 245.722,437.559 246.722,438.725 246.5,441C 245.167,445.667 243.833,445.667 242.5,441C 242.648,439.744 242.982,438.577 243.5,437.5 Z"/></g>
<g><path style="opacity:1" fill="#3d3c3a" d="M 252.5,435.5 C 256.071,435.408 257.238,437.074 256,440.5C 255.535,441.931 254.701,443.097 253.5,444C 254.5,444.333 255.5,444.667 256.5,445C 250.136,446.387 249.302,445.221 254,441.5C 254.49,440.207 254.657,438.873 254.5,437.5C 253.178,437.33 252.011,437.663 251,438.5C 250.761,437.212 251.261,436.212 252.5,435.5 Z"/></g>
</svg>
